<svg width="42" height="36" viewBox="0 0 42 36" fill="none" xmlns="http://www.w3.org/2000/svg">
<path d="M32.3438 28V21.5H26.25V18.5H32.3438V12H35.1562V18.5H41.25V21.5H35.1562V28H32.3438ZM18.75 36L12.7969 30.3C10.5469 28.1333 8.61719 26.2 7.00781 24.5C5.39844 22.8 4.07031 21.2 3.02344 19.7C1.97656 18.2 1.21094 16.75 0.726563 15.35C0.242188 13.95 0 12.4833 0 10.95C0 7.81667 0.984375 5.20833 2.95312 3.125C4.92187 1.04167 7.375 0 10.3125 0C11.9375 0 13.4844 0.358333 14.9531 1.075C16.4219 1.79167 17.6875 2.81667 18.75 4.15C19.8125 2.81667 21.0781 1.79167 22.5469 1.075C24.0156 0.358333 25.5625 0 27.1875 0C29.8438 0 32.0703 0.858333 33.8672 2.575C35.6641 4.29167 36.7812 6.3 37.2188 8.6C36.6562 8.36667 36.0938 8.19167 35.5312 8.075C34.9688 7.95833 34.4219 7.9 33.8906 7.9C30.7344 7.9 28.0469 9.075 25.8281 11.425C23.6094 13.775 22.5 16.6333 22.5 20C22.5 21.7333 22.8281 23.375 23.4844 24.925C24.1406 26.475 25.0625 27.8 26.25 28.9C25.6562 29.4667 24.8828 30.1917 23.9297 31.075C22.9766 31.9583 22.1562 32.7333 21.4688 33.4L18.75 36Z" fill="#FF0000"/>
</svg>
