<svg width="42" height="36" viewBox="0 0 42 36" fill="none" xmlns="http://www.w3.org/2000/svg">
<path d="M32.9395 28V21.5H26.8457V18.5H32.9395V12H35.752V18.5H41.8457V21.5H35.752V28H32.9395ZM19.3457 36L13.3926 30.3C11.1426 28.1333 9.21289 26.2 7.60352 24.5C5.99414 22.8 4.66602 21.2 3.61914 19.7C2.57227 18.2 1.80664 16.75 1.32227 15.35C0.837891 13.95 0.595703 12.4833 0.595703 10.95C0.595703 7.81667 1.58008 5.20833 3.54883 3.125C5.51758 1.04167 7.9707 0 10.9082 0C12.5332 0 14.0801 0.358333 15.5488 1.075C17.0176 1.79167 18.2832 2.81667 19.3457 4.15C20.4082 2.81667 21.6738 1.79167 23.1426 1.075C24.6113 0.358333 26.1582 0 27.7832 0C30.4395 0 32.666 0.858333 34.4629 2.575C36.2598 4.29167 37.377 6.3 37.8145 8.6C37.252 8.36667 36.6895 8.19167 36.127 8.075C35.5645 7.95833 35.0176 7.9 34.4863 7.9C31.3301 7.9 28.6426 9.075 26.4238 11.425C24.2051 13.775 23.0957 16.6333 23.0957 20C23.0957 21.7333 23.4238 23.375 24.0801 24.925C24.7363 26.475 25.6582 27.8 26.8457 28.9C26.252 29.4667 25.4785 30.1917 24.5254 31.075C23.5723 31.9583 22.752 32.7333 22.0645 33.4L19.3457 36Z" fill="#A10000"/>
</svg>
