<svg width="38" height="31" viewBox="0 0 38 31" fill="none" xmlns="http://www.w3.org/2000/svg">
<path d="M17.0851 30.7027L12.925 26.8787C10.4878 24.6376 8.46376 22.7186 6.85294 21.1218C5.24213 19.525 3.94647 18.0823 2.96597 16.7936C1.98548 15.505 1.29213 14.2934 0.88592 13.1588C0.479714 12.0242 0.276611 10.8126 0.276611 9.52394C0.276611 7.00266 1.12404 4.86658 2.8189 3.11569C4.51376 1.36481 6.60782 0.489365 9.10108 0.489365C10.6979 0.489365 12.1756 0.860552 13.5343 1.60293C14.893 2.3453 16.0766 3.43085 17.0851 4.85958C18.2617 3.34681 19.5084 2.24025 20.825 1.5399C22.1417 0.839542 23.5564 0.489365 25.0692 0.489365C27.3383 0.489365 29.2363 1.25975 30.7631 2.80053C32.2898 4.34132 33.2213 6.20426 33.5575 8.38937H31.0782C30.8261 6.84858 30.1748 5.56694 29.1242 4.54442C28.0737 3.5219 26.722 3.01064 25.0692 3.01064C23.6404 3.01064 22.3098 3.44486 21.0771 4.3133C19.8445 5.18174 18.85 6.41436 18.0936 8.01117H16.0346C15.3062 6.44238 14.3257 5.21676 13.0931 4.33431C11.8605 3.45186 10.5298 3.01064 9.10108 3.01064C7.25214 3.01064 5.73938 3.63396 4.56278 4.88059C3.38619 6.12722 2.79789 7.675 2.79789 9.52394C2.79789 10.6165 3.015 11.681 3.44922 12.7176C3.88344 13.7541 4.63982 14.9307 5.71837 16.2473C6.79691 17.564 8.26065 19.1048 10.1096 20.8697C11.9585 22.6346 14.2837 24.8057 17.0851 27.383C17.9816 26.5706 18.829 25.8142 19.6274 25.1138C20.4258 24.4135 21.2172 23.7271 22.0016 23.0548L22.2747 23.3279C22.4568 23.51 22.6599 23.7061 22.8841 23.9162C23.1082 24.1263 23.3113 24.3224 23.4934 24.5045L23.7665 24.7777C23.0101 25.45 22.2257 26.1364 21.4133 26.8367C20.6009 27.5371 19.7325 28.3075 18.808 29.1479L17.0851 30.7027ZM29.2713 24.0213V18.5585H23.8085V16.0372H29.2713V10.5745H31.7926V16.0372H37.2553V18.5585H31.7926V24.0213H29.2713Z" fill="#A20000"/>
</svg>
